<svg width="14" height="16" viewBox="0 0 14 16" fill="none" xmlns="http://www.w3.org/2000/svg">
<ellipse cx="7" cy="7.46719" rx="7" ry="7.35" fill="#7FD3DF"/>
<path d="M5.01413 10V9.482C5.44925 9.06069 5.84293 8.68083 6.19517 8.3424C6.55432 8.00397 6.86857 7.69317 7.13793 7.41C7.40729 7.12683 7.63521 6.85401 7.82169 6.59156C8.00817 6.32911 8.14631 6.0632 8.2361 5.79384C8.33279 5.52448 8.38114 5.2344 8.38114 4.9236C8.38114 4.57827 8.31898 4.29164 8.19465 4.06372C8.07033 3.82889 7.90457 3.65623 7.69737 3.54572C7.49708 3.42831 7.27607 3.3696 7.03433 3.3696C6.61993 3.3696 6.25733 3.52155 5.94653 3.82544C5.63573 4.12243 5.42853 4.55755 5.32493 5.1308H5.11773C5.11773 4.86835 5.12809 4.61971 5.14881 4.38488C5.16953 4.14315 5.24205 3.94285 5.36637 3.784C5.55285 3.55608 5.82567 3.36269 6.18481 3.20384C6.54396 3.03808 6.93073 2.9552 7.34513 2.9552C7.55233 2.9552 7.77335 2.98283 8.00817 3.03808C8.24991 3.08643 8.47783 3.17967 8.69194 3.3178C8.90604 3.45593 9.07871 3.65623 9.20993 3.91868C9.34807 4.17423 9.41714 4.5092 9.41714 4.9236C9.41714 5.22059 9.36879 5.50031 9.2721 5.76276C9.18231 6.01831 9.05453 6.26695 8.88878 6.50868C8.72302 6.75041 8.52618 6.99215 8.29825 7.23388C8.07033 7.46871 7.81824 7.71044 7.54197 7.95908C7.27261 8.20081 6.98253 8.45636 6.67173 8.72572C6.36784 8.99508 6.05704 9.28171 5.73933 9.5856H8.07034C8.48474 9.5856 8.80244 9.49581 9.02346 9.31624C9.25138 9.13667 9.36534 8.86385 9.36534 8.4978H9.57254V9.1712C9.57254 9.30933 9.54836 9.44401 9.50002 9.57524C9.45167 9.69956 9.36533 9.80316 9.24102 9.88604C9.1167 9.96201 8.93367 10 8.69194 10H5.01413Z" fill="white"/>
</svg>
