<svg width="16" height="16" viewBox="0 0 16 16" fill="none" xmlns="http://www.w3.org/2000/svg">
<g clip-path="url(#clip0_3_8231)">
<path d="M15 7.23V2.47C15 1.42 14.552 1 13.439 1H10.611C9.498 1 9.05 1.42 9.05 2.47V7.23C9.05 8.28 9.498 8.7 10.611 8.7H13.439C14.552 8.7 15 8.28 15 7.23V7.23ZM15 13.53V12.27C15 11.22 14.552 10.8 13.439 10.8H10.611C9.498 10.8 9.05 11.22 9.05 12.27V13.53C9.05 14.58 9.498 15 10.611 15H13.439C14.552 15 15 14.58 15 13.53ZM6.95 8.77V13.53C6.95 14.58 6.502 15 5.389 15H2.561C1.448 15 1 14.58 1 13.53V8.77C1 7.72 1.448 7.3 2.561 7.3H5.389C6.502 7.3 6.95 7.72 6.95 8.77V8.77ZM6.95 2.47V3.73C6.95 4.78 6.502 5.2 5.389 5.2H2.561C1.448 5.2 1 4.78 1 3.73V2.47C1 1.42 1.448 1 2.561 1H5.389C6.502 1 6.95 1.42 6.95 2.47Z" stroke="#7FD3DF" stroke-width="1.5" stroke-linecap="round" stroke-linejoin="round"/>
</g>
<defs>
<clipPath id="clip0_3_8231">
<rect width="16" height="16" fill="white"/>
</clipPath>
</defs>
</svg>
