<svg width="35" height="35" viewBox="0 0 35 35" fill="none" xmlns="http://www.w3.org/2000/svg">
<rect width="35" height="35" rx="10" fill="#7FD3DF"/>
<path fill-rule="evenodd" clip-rule="evenodd" d="M9 12.5C9 10.567 10.567 9 12.5 9C14.433 9 16 10.567 16 12.5C16 14.433 14.433 16 12.5 16C10.567 16 9 14.433 9 12.5ZM14.5002 12.5C14.5002 11.3954 13.6048 10.5 12.5002 10.5C11.3957 10.5 10.5002 11.3954 10.5002 12.5C10.5002 13.6046 11.3957 14.5 12.5002 14.5C13.6048 14.5 14.5002 13.6046 14.5002 12.5Z" fill="white"/>
<path fill-rule="evenodd" clip-rule="evenodd" d="M19 12.5C19 10.567 20.567 9 22.5 9C24.433 9 26 10.567 26 12.5C26 14.433 24.433 16 22.5 16C20.567 16 19 14.433 19 12.5ZM24.5002 12.5C24.5002 11.3954 23.6048 10.5 22.5002 10.5C21.3957 10.5 20.5002 11.3954 20.5002 12.5C20.5002 13.6046 21.3957 14.5 22.5002 14.5C23.6048 14.5 24.5002 13.6046 24.5002 12.5Z" fill="white"/>
<path fill-rule="evenodd" clip-rule="evenodd" d="M9 22.5C9 20.567 10.567 19 12.5 19C14.433 19 16 20.567 16 22.5C16 24.433 14.433 26 12.5 26C10.567 26 9 24.433 9 22.5ZM14.5002 22.5C14.5002 21.3954 13.6048 20.5 12.5002 20.5C11.3957 20.5 10.5002 21.3954 10.5002 22.5C10.5002 23.6046 11.3957 24.5 12.5002 24.5C13.6048 24.5 14.5002 23.6046 14.5002 22.5Z" fill="white"/>
<path fill-rule="evenodd" clip-rule="evenodd" d="M19 22.5C19 20.567 20.567 19 22.5 19C24.433 19 26 20.567 26 22.5C26 24.433 24.433 26 22.5 26C20.567 26 19 24.433 19 22.5ZM24.5002 22.5C24.5002 21.3954 23.6048 20.5 22.5002 20.5C21.3957 20.5 20.5002 21.3954 20.5002 22.5C20.5002 23.6046 21.3957 24.5 22.5002 24.5C23.6048 24.5 24.5002 23.6046 24.5002 22.5Z" fill="white"/>
</svg>
