<svg width="31" height="30" viewBox="0 0 31 30" fill="none" xmlns="http://www.w3.org/2000/svg">
<path d="M2.62695 8.75V7.97882C2.20104 7.97882 1.85577 8.32409 1.85577 8.75H2.62695ZM16.377 8.75H17.1481C17.1481 8.32409 16.8029 7.97882 16.377 7.97882V8.75ZM16.377 11.25V10.4788C16.1724 10.4788 15.9763 10.5601 15.8316 10.7047C15.687 10.8493 15.6058 11.0455 15.6058 11.25H16.377ZM2.62695 9.52118H16.377V7.97882H2.62695V9.52118ZM15.6058 8.75V23.75H17.1481V8.75H15.6058ZM3.39813 21.25V8.75H1.85577V21.25H3.39813ZM16.377 12.0212H22.5176V10.4788H16.377V12.0212ZM26.8558 16.3594V21.25H28.3981V16.3594H26.8558ZM17.1481 23.75L17.1481 11.25H15.6058L15.6058 23.75L17.1481 23.75ZM23.8494 24.9725C23.1743 25.6476 22.0796 25.6476 21.4045 24.9725L20.3139 26.0631C21.5914 27.3405 23.6626 27.3405 24.94 26.0631L23.8494 24.9725ZM21.4045 22.5275C22.0796 21.8524 23.1743 21.8524 23.8494 22.5275L24.94 21.4369C23.6626 20.1595 21.5914 20.1595 20.3139 21.4369L21.4045 22.5275ZM8.84941 24.9725C8.17427 25.6476 7.07964 25.6476 6.40449 24.9725L5.31388 26.0631C6.59135 27.3405 8.66255 27.3405 9.94002 26.0631L8.84941 24.9725ZM6.40449 22.5275C7.07964 21.8524 8.17427 21.8524 8.84941 22.5275L9.94002 21.4369C8.66255 20.1595 6.59135 20.1595 5.31388 21.4369L6.40449 22.5275ZM23.8494 22.5275C24.1871 22.8653 24.3558 23.3064 24.3558 23.75H25.8981C25.8981 22.914 25.5786 22.0755 24.94 21.4369L23.8494 22.5275ZM24.3558 23.75C24.3558 24.1936 24.1871 24.6347 23.8494 24.9725L24.94 26.0631C25.5786 25.4245 25.8981 24.586 25.8981 23.75H24.3558ZM20.127 22.9788H16.377V24.5212H20.127V22.9788ZM21.4045 24.9725C21.0668 24.6347 20.8981 24.1936 20.8981 23.75H19.3558C19.3558 24.586 19.6753 25.4245 20.3139 26.0631L21.4045 24.9725ZM20.8981 23.75C20.8981 23.3064 21.0668 22.8653 21.4045 22.5275L20.3139 21.4369C19.6753 22.0755 19.3558 22.914 19.3558 23.75H20.8981ZM6.40449 24.9725C6.06677 24.6347 5.89813 24.1936 5.89813 23.75H4.35577C4.35577 24.586 4.67529 25.4245 5.31388 26.0631L6.40449 24.9725ZM5.89813 23.75C5.89813 23.3064 6.06677 22.8653 6.40449 22.5275L5.31388 21.4369C4.67529 22.0755 4.35577 22.914 4.35577 23.75H5.89813ZM16.377 22.9788H10.127V24.5212H16.377V22.9788ZM8.84941 22.5275C9.18714 22.8653 9.35577 23.3064 9.35577 23.75H10.8981C10.8981 22.914 10.5786 22.0755 9.94002 21.4369L8.84941 22.5275ZM9.35577 23.75C9.35577 24.1936 9.18714 24.6347 8.84941 24.9725L9.94002 26.0631C10.5786 25.4245 10.8981 24.586 10.8981 23.75H9.35577ZM26.8558 21.25C26.8558 22.2048 26.0818 22.9788 25.127 22.9788V24.5212C26.9336 24.5212 28.3981 23.0566 28.3981 21.25H26.8558ZM22.5176 12.0212C24.9135 12.0212 26.8558 13.9635 26.8558 16.3594H28.3981C28.3981 13.1116 25.7653 10.4788 22.5176 10.4788V12.0212ZM1.85577 21.25C1.85577 23.0566 3.32033 24.5212 5.12695 24.5212V22.9788C4.17215 22.9788 3.39813 22.2048 3.39813 21.25H1.85577Z" fill="#7FD3DF"/>
<path d="M4.50195 5C4.50195 4.30964 5.0616 3.75 5.75195 3.75V3.75C7.82302 3.75 9.50195 5.42893 9.50195 7.5V8.75H8.25195C6.18089 8.75 4.50195 7.07107 4.50195 5V5Z" stroke="#7FD3DF" stroke-width="1.54236" stroke-linejoin="round"/>
<path d="M14.502 5C14.502 4.30964 13.9423 3.75 13.252 3.75V3.75C11.1809 3.75 9.50195 5.42893 9.50195 7.5V8.75H10.752C12.823 8.75 14.502 7.07107 14.502 5V5Z" stroke="#7FD3DF" stroke-width="1.54236" stroke-linejoin="round"/>
</svg>
