<svg width="16" height="22" viewBox="0 0 16 22" fill="none" xmlns="http://www.w3.org/2000/svg">
<path d="M8 16.7266C7.46957 16.7266 6.96086 16.5158 6.58579 16.1408C6.21071 15.7657 6 15.257 6 14.7266C6 13.6166 6.89 12.7266 8 12.7266C8.53043 12.7266 9.03914 12.9373 9.41421 13.3123C9.78929 13.6874 10 14.1961 10 14.7266C10 15.257 9.78929 15.7657 9.41421 16.1408C9.03914 16.5158 8.53043 16.7266 8 16.7266ZM14 19.7266V9.72656H2V19.7266H14ZM14 7.72656C14.5304 7.72656 15.0391 7.93728 15.4142 8.31235C15.7893 8.68742 16 9.19613 16 9.72656V19.7266C16 20.257 15.7893 20.7657 15.4142 21.1408C15.0391 21.5158 14.5304 21.7266 14 21.7266H2C1.46957 21.7266 0.960859 21.5158 0.585786 21.1408C0.210714 20.7657 0 20.257 0 19.7266V9.72656C0 8.61656 0.89 7.72656 2 7.72656H3V5.72656C3 4.40048 3.52678 3.12871 4.46447 2.19103C5.40215 1.25335 6.67392 0.726563 8 0.726562C8.65661 0.726562 9.30679 0.855891 9.91342 1.10716C10.52 1.35844 11.0712 1.72674 11.5355 2.19103C11.9998 2.65532 12.3681 3.20652 12.6194 3.81315C12.8707 4.41977 13 5.06995 13 5.72656V7.72656H14ZM8 2.72656C7.20435 2.72656 6.44129 3.04263 5.87868 3.60524C5.31607 4.16785 5 4.93091 5 5.72656V7.72656H11V5.72656C11 4.93091 10.6839 4.16785 10.1213 3.60524C9.55871 3.04263 8.79565 2.72656 8 2.72656Z" fill="black" fill-opacity="0.2"/>
</svg>
