<svg width="22" height="22" viewBox="0 0 22 22" fill="none" xmlns="http://www.w3.org/2000/svg">
<g clip-path="url(#clip0_341_2172)">
<path d="M10.6223 15.8352L7.01817 18.0151C6.35814 18.4146 5.55047 17.824 5.72416 17.0771L6.67947 12.978L3.49221 10.2163C2.91034 9.71257 3.22299 8.75726 3.98723 8.69647L8.18191 8.3404L9.82331 4.46705C10.1186 3.76359 11.126 3.76359 11.4213 4.46705L13.0627 8.33171L17.2574 8.68778C18.0216 8.74857 18.3343 9.70389 17.7524 10.2076L14.5651 12.9693L15.5204 17.0685C15.6941 17.8153 14.8865 18.4059 14.2264 18.0064L10.6223 15.8352Z" fill="#323232" fill-opacity="0.5"/>
</g>
<defs>
<clipPath id="clip0_341_2172">
<rect width="20.8431" height="20.8431" fill="white" transform="matrix(-1 0 0 1 21.0439 0.835938)"/>
</clipPath>
</defs>
</svg>
