<svg width="95" height="17" viewBox="0 0 95 17" fill="none" xmlns="http://www.w3.org/2000/svg">
<path d="M10.5137 5.90016L9.0437 1.06016C8.7537 0.110156 7.4137 0.110156 7.1337 1.06016L5.6537 5.90016H1.2037C0.233699 5.90016 -0.166301 7.15016 0.623699 7.71016L4.2637 10.3102L2.8337 14.9202C2.5437 15.8502 3.6237 16.6002 4.3937 16.0102L8.0837 13.2102L11.7737 16.0202C12.5437 16.6102 13.6237 15.8602 13.3337 14.9302L11.9037 10.3202L15.5437 7.72016C16.3337 7.15016 15.9337 5.91016 14.9637 5.91016H10.5137V5.90016Z" fill="#FFC107"/>
<path d="M30.2725 5.90016L28.8025 1.06016C28.5125 0.110156 27.1725 0.110156 26.8925 1.06016L25.4125 5.90016H20.9625C19.9925 5.90016 19.5925 7.15016 20.3825 7.71016L24.0225 10.3102L22.5925 14.9202C22.3025 15.8502 23.3825 16.6002 24.1525 16.0102L27.8425 13.2102L31.5325 16.0202C32.3025 16.6102 33.3825 15.8602 33.0925 14.9302L31.6625 10.3202L35.3025 7.72016C36.0925 7.15016 35.6925 5.91016 34.7225 5.91016H30.2725V5.90016Z" fill="#FFC107"/>
<path d="M50.0323 5.90016L48.5623 1.06016C48.2723 0.110156 46.9323 0.110156 46.6523 1.06016L45.1723 5.90016H40.7223C39.7523 5.90016 39.3523 7.15016 40.1423 7.71016L43.7823 10.3102L42.3523 14.9202C42.0623 15.8502 43.1423 16.6002 43.9123 16.0102L47.6023 13.2102L51.2923 16.0202C52.0623 16.6102 53.1423 15.8602 52.8523 14.9302L51.4223 10.3202L55.0623 7.72016C55.8523 7.15016 55.4523 5.91016 54.4823 5.91016H50.0323V5.90016Z" fill="#FFC107"/>
<path d="M69.791 5.90016L68.321 1.06016C68.031 0.110156 66.691 0.110156 66.411 1.06016L64.931 5.90016H60.481C59.511 5.90016 59.111 7.15016 59.901 7.71016L63.541 10.3102L62.111 14.9202C61.821 15.8502 62.901 16.6002 63.671 16.0102L67.361 13.2102L71.051 16.0202C71.821 16.6102 72.901 15.8602 72.611 14.9302L71.181 10.3202L74.821 7.72016C75.611 7.15016 75.211 5.91016 74.241 5.91016H69.791V5.90016Z" fill="#FFC107"/>
<path d="M89.5498 5.90016L88.0798 1.06016C87.7898 0.110156 86.4498 0.110156 86.1698 1.06016L84.6898 5.90016H80.2398C79.2698 5.90016 78.8698 7.15016 79.6598 7.71016L83.2998 10.3102L81.8698 14.9202C81.5798 15.8502 82.6598 16.6002 83.4298 16.0102L87.1198 13.2102L90.8098 16.0202C91.5798 16.6102 92.6598 15.8602 92.3698 14.9302L90.9398 10.3202L94.5798 7.72016C95.3698 7.15016 94.9698 5.91016 93.9998 5.91016H89.5498V5.90016Z" fill="#FFC107"/>
</svg>
