<svg width="102" height="18" viewBox="0 0 102 18" fill="none" xmlns="http://www.w3.org/2000/svg">
<path d="M16.207 6.29391L11.367 5.87391L9.47696 1.42391C9.13696 0.613906 7.97696 0.613906 7.63696 1.42391L5.74696 5.88391L0.916957 6.29391C0.0369575 6.36391 -0.323043 7.46391 0.346957 8.04391L4.01696 11.2239L2.91696 15.9439C2.71696 16.8039 3.64696 17.4839 4.40696 17.0239L8.55696 14.5239L12.707 17.0339C13.467 17.4939 14.397 16.8139 14.197 15.9539L13.097 11.2239L16.767 8.04391C17.437 7.46391 17.087 6.36391 16.207 6.29391ZM8.55696 12.6539L4.79696 14.9239L5.79696 10.6439L2.47696 7.76391L6.85696 7.38391L8.55696 3.35391L10.267 7.39391L14.647 7.77391L11.327 10.6539L12.327 14.9339L8.55696 12.6539Z" fill="#FFC107"/>
<path d="M37.3241 6.29391L32.4841 5.87391L30.5941 1.42391C30.2541 0.613906 29.0941 0.613906 28.7541 1.42391L26.8641 5.88391L22.0341 6.29391C21.1541 6.36391 20.7941 7.46391 21.4641 8.04391L25.1341 11.2239L24.0341 15.9439C23.8341 16.8039 24.7641 17.4839 25.5241 17.0239L29.6741 14.5239L33.8241 17.0339C34.5841 17.4939 35.5141 16.8139 35.3141 15.9539L34.2141 11.2239L37.8841 8.04391C38.5541 7.46391 38.2041 6.36391 37.3241 6.29391ZM29.6741 12.6539L25.9141 14.9239L26.9141 10.6439L23.5941 7.76391L27.9741 7.38391L29.6741 3.35391L31.3841 7.39391L35.7641 7.77391L32.4441 10.6539L33.4441 14.9339L29.6741 12.6539Z" fill="#FFC107"/>
<path d="M58.4404 6.29391L53.6004 5.87391L51.7104 1.42391C51.3704 0.613906 50.2104 0.613906 49.8704 1.42391L47.9804 5.88391L43.1504 6.29391C42.2704 6.36391 41.9104 7.46391 42.5804 8.04391L46.2504 11.2239L45.1504 15.9439C44.9504 16.8039 45.8804 17.4839 46.6404 17.0239L50.7904 14.5239L54.9404 17.0339C55.7004 17.4939 56.6304 16.8139 56.4304 15.9539L55.3304 11.2239L59.0004 8.04391C59.6704 7.46391 59.3204 6.36391 58.4404 6.29391ZM50.7904 12.6539L47.0304 14.9239L48.0304 10.6439L44.7104 7.76391L49.0904 7.38391L50.7904 3.35391L52.5004 7.39391L56.8804 7.77391L53.5604 10.6539L54.5604 14.9339L50.7904 12.6539Z" fill="#FFC107"/>
<path d="M79.5575 6.29391L74.7175 5.87391L72.8275 1.42391C72.4875 0.613906 71.3275 0.613906 70.9875 1.42391L69.0975 5.88391L64.2675 6.29391C63.3875 6.36391 63.0275 7.46391 63.6975 8.04391L67.3675 11.2239L66.2675 15.9439C66.0675 16.8039 66.9975 17.4839 67.7575 17.0239L71.9075 14.5239L76.0575 17.0339C76.8175 17.4939 77.7475 16.8139 77.5475 15.9539L76.4475 11.2239L80.1175 8.04391C80.7875 7.46391 80.4375 6.36391 79.5575 6.29391ZM71.9075 12.6539L68.1475 14.9239L69.1475 10.6439L65.8275 7.76391L70.2075 7.38391L71.9075 3.35391L73.6175 7.39391L77.9975 7.77391L74.6775 10.6539L75.6775 14.9339L71.9075 12.6539Z" fill="#FFC107"/>
<path d="M100.675 6.29391L95.8347 5.87391L93.9447 1.42391C93.6047 0.613906 92.4447 0.613906 92.1047 1.42391L90.2147 5.88391L85.3847 6.29391C84.5047 6.36391 84.1447 7.46391 84.8147 8.04391L88.4847 11.2239L87.3847 15.9439C87.1847 16.8039 88.1147 17.4839 88.8747 17.0239L93.0247 14.5239L97.1747 17.0339C97.9347 17.4939 98.8647 16.8139 98.6647 15.9539L97.5647 11.2239L101.235 8.04391C101.905 7.46391 101.555 6.36391 100.675 6.29391ZM93.0247 12.6539L89.2647 14.9239L90.2647 10.6439L86.9447 7.76391L91.3247 7.38391L93.0247 3.35391L94.7347 7.39391L99.1147 7.77391L95.7947 10.6539L96.7947 14.9339L93.0247 12.6539Z" fill="#FFC107"/>
</svg>
