<svg width="18" height="19" viewBox="0 0 18 19" fill="none" xmlns="http://www.w3.org/2000/svg">
<path opacity="0.5" d="M9 10.8516C12.0037 10.8516 18 12.3591 18 15.3516V18.7266H0V15.3516C0 12.3591 5.99625 10.8516 9 10.8516ZM9 0.726562C10.1935 0.726563 11.3381 1.20067 12.182 2.04458C13.0259 2.8885 13.5 4.03309 13.5 5.22656C13.5 6.42004 13.0259 7.56463 12.182 8.40854C11.3381 9.25246 10.1935 9.72656 9 9.72656C7.80653 9.72656 6.66193 9.25246 5.81802 8.40854C4.97411 7.56463 4.5 6.42004 4.5 5.22656C4.5 4.03309 4.97411 2.8885 5.81802 2.04458C6.66193 1.20067 7.80653 0.726563 9 0.726562ZM9 12.9891C5.65875 12.9891 2.1375 14.6316 2.1375 15.3516V16.5891H15.8625V15.3516C15.8625 14.6316 12.3413 12.9891 9 12.9891ZM9 2.86406C8.37343 2.86406 7.77251 3.11297 7.32946 3.55602C6.88641 3.99908 6.6375 4.59999 6.6375 5.22656C6.6375 5.85314 6.88641 6.45405 7.32946 6.8971C7.77251 7.34016 8.37343 7.58906 9 7.58906C9.62657 7.58906 10.2275 7.34016 10.6705 6.8971C11.1136 6.45405 11.3625 5.85314 11.3625 5.22656C11.3625 4.59999 11.1136 3.99908 10.6705 3.55602C10.2275 3.11297 9.62657 2.86406 9 2.86406Z" fill="black" fill-opacity="0.3"/>
</svg>
