<svg width="70" height="31" viewBox="0 0 70 31" fill="none" xmlns="http://www.w3.org/2000/svg">
<path d="M35.9331 14.0073V12.9498C36.8662 13.2816 37.8739 13.4475 38.9563 13.4475C40.4865 13.4475 41.2516 12.8876 41.2516 11.7679C41.2516 10.8141 40.6876 10.3372 39.5597 10.3372H38.4151C36.5531 10.3372 35.6221 9.52855 35.6221 7.91121C35.6221 6.21093 36.8143 5.36079 39.1989 5.36079C40.2356 5.36079 41.1998 5.4852 42.0914 5.73402V6.79151C41.1998 6.45975 40.2356 6.29387 39.1989 6.29387C37.5815 6.29387 36.7729 6.83298 36.7729 7.91121C36.7729 8.86502 37.3203 9.34193 38.4151 9.34193H39.5597C41.4548 9.34193 42.4024 10.1506 42.4024 11.7679C42.4024 13.5097 41.2537 14.3806 38.9563 14.3806C37.8739 14.3806 36.8662 14.2562 35.9331 14.0073Z" fill="black" fill-opacity="0.7"/>
<path d="M43.9576 14.3184V7.7868H44.7351L44.928 8.60791C45.5542 8.0605 46.2364 7.7868 46.9745 7.7868C47.9201 7.7868 48.5649 8.08538 48.9091 8.68255C49.6183 8.08538 50.3378 7.7868 51.0676 7.7868C52.5689 7.7868 53.3195 8.61413 53.3195 10.2688V14.3184H52.1687V10.2066C52.1687 9.23204 51.7581 8.74476 50.937 8.74476C50.3233 8.74476 49.7489 9.02676 49.2139 9.59075V14.3184H48.0631V10.2252C48.0631 9.23826 47.6567 8.74476 46.8439 8.74476C46.197 8.74476 45.6185 9.02676 45.1084 9.59075V14.3184H43.9576Z" fill="black" fill-opacity="0.7"/>
<path d="M54.8808 12.3464C54.8808 11.007 55.7641 10.3372 57.5308 10.3372C58.0989 10.3372 58.6671 10.3787 59.2352 10.4616V9.84579C59.2352 9.09518 58.6484 8.71988 57.4748 8.71988C56.803 8.71988 56.1146 8.82355 55.4096 9.0309V8.09782C56.1146 7.89047 56.803 7.7868 57.4748 7.7868C59.4156 7.7868 60.386 8.46276 60.386 9.81469V14.3184H59.7391L59.341 13.6714C58.6899 14.1027 57.9807 14.3184 57.2135 14.3184C55.6584 14.3184 54.8808 13.6611 54.8808 12.3464ZM57.5308 11.2703C56.5313 11.2703 56.0316 11.6228 56.0316 12.3278C56.0316 13.0328 56.4256 13.3853 57.2135 13.3853C58.0098 13.3853 58.6837 13.1738 59.2352 12.7508V11.3947C58.6671 11.3118 58.0989 11.2703 57.5308 11.2703Z" fill="black" fill-opacity="0.7"/>
<path d="M62.2584 14.3184V7.7868H63.036L63.2412 8.62035C63.8135 8.06465 64.5019 7.7868 65.3064 7.7868V8.74476C64.5268 8.74476 63.8944 9.02054 63.4092 9.57209V14.3184H62.2584Z" fill="black" fill-opacity="0.7"/>
<path d="M66.4635 6.72931H67.1851L67.4339 7.7868H69.2005V8.71988H67.6143V12.4709C67.6143 13.0805 67.8776 13.3853 68.4043 13.3853H69.2005V14.3184H68.1057C67.0109 14.3184 66.4635 13.7316 66.4635 12.5579V6.72931Z" fill="black" fill-opacity="0.7"/>
<path d="M35.9331 28.0073V26.9498C36.8662 27.2816 37.8739 27.4475 38.9563 27.4475C40.4865 27.4475 41.2516 26.8876 41.2516 25.7679C41.2516 24.8141 40.6876 24.3372 39.5597 24.3372H38.4151C36.5531 24.3372 35.6221 23.5285 35.6221 21.9112C35.6221 20.2109 36.8143 19.3608 39.1989 19.3608C40.2356 19.3608 41.1998 19.4852 42.0914 19.734V20.7915C41.1998 20.4597 40.2356 20.2939 39.1989 20.2939C37.5815 20.2939 36.7729 20.833 36.7729 21.9112C36.7729 22.865 37.3203 23.3419 38.4151 23.3419H39.5597C41.4548 23.3419 42.4024 24.1506 42.4024 25.7679C42.4024 27.5097 41.2537 28.3806 38.9563 28.3806C37.8739 28.3806 36.8662 28.2562 35.9331 28.0073Z" fill="black" fill-opacity="0.7"/>
<path d="M43.9576 28.3184V19.423H45.1084V22.4959C45.6641 22.0232 46.3421 21.7868 47.1425 21.7868C48.7723 21.7868 49.5872 22.5975 49.5872 24.219V28.3184H48.4364V24.2004C48.4364 23.23 47.9532 22.7448 46.987 22.7448C46.3276 22.7448 45.7014 23.0205 45.1084 23.5721V28.3184H43.9576Z" fill="black" fill-opacity="0.7"/>
<path d="M52.2993 25.0277C52.2993 26.5994 52.9525 27.3853 54.2588 27.3853C55.5651 27.3853 56.2182 26.5994 56.2182 25.0277C56.2182 23.4892 55.5651 22.7199 54.2588 22.7199C52.9525 22.7199 52.2993 23.4892 52.2993 25.0277ZM51.1485 25.0526C51.1485 22.8754 52.1853 21.7868 54.2588 21.7868C56.3323 21.7868 57.369 22.8754 57.369 25.0526C57.369 27.2256 56.3323 28.3121 54.2588 28.3121C52.1936 28.3121 51.1568 27.2256 51.1485 25.0526Z" fill="black" fill-opacity="0.7"/>
<path d="M60.075 26.9872C60.527 27.2111 61.0309 27.3231 61.5866 27.3231C62.9426 27.3231 63.6207 26.5082 63.6207 24.8784C63.6207 23.456 62.9468 22.7448 61.599 22.7448C61.0184 22.7448 60.5104 22.7945 60.075 22.8941V26.9872ZM58.9242 22.0543C59.7909 21.876 60.6867 21.7868 61.6115 21.7868C63.7057 21.7868 64.7528 22.8215 64.7528 24.8908C64.7528 27.1759 63.6995 28.3184 61.5928 28.3184C61.0703 28.3184 60.5643 28.2147 60.075 28.0073V30.6822H58.9242V22.0543Z" fill="black" fill-opacity="0.7"/>
<path d="M30 15.3184C30 23.6026 23.2843 30.3184 15 30.3184C6.71573 30.3184 0 23.6026 0 15.3184C0 7.03409 6.71573 0.318359 15 0.318359C23.2843 0.318359 30 7.03409 30 15.3184Z" fill="#7FD3DF"/>
<path fill-rule="evenodd" clip-rule="evenodd" d="M7.74414 13.9185C7.74414 13.6008 7.99418 13.343 8.30228 13.343C8.61037 13.343 8.86041 13.6008 8.86041 13.9185V20.4408C8.86041 21.3946 9.60978 22.1673 10.5348 22.1673H19.465C20.39 22.1673 21.1394 21.3946 21.1394 20.4408V13.9185C21.1394 13.6008 21.3894 13.343 21.6975 13.343C22.0056 13.343 22.2557 13.6008 22.2557 13.9185V20.4408C22.2557 22.03 21.0062 23.3184 19.465 23.3184H10.5348C8.9936 23.3184 7.74414 22.03 7.74414 20.4408V13.9185Z" fill="white"/>
<path fill-rule="evenodd" clip-rule="evenodd" d="M15.0006 16.412C15.741 16.412 16.4503 16.715 16.9742 17.2545C17.4973 17.7947 17.7913 18.526 17.7913 19.2895V22.7425C17.7913 23.0602 17.5413 23.3181 17.2332 23.3181C16.9251 23.3181 16.675 23.0602 16.675 22.7425V19.2895C16.675 18.8314 16.4986 18.3925 16.1847 18.0686C15.8706 17.7447 15.445 17.563 15.0006 17.563C14.5564 17.563 14.1307 17.7449 13.8166 18.0686C13.5025 18.3924 13.3262 18.8313 13.3262 19.2895V22.7425C13.3262 23.0602 13.0762 23.3181 12.7681 23.3181C12.46 23.3181 12.21 23.0602 12.21 22.7425V19.2895C12.21 18.526 12.5039 17.7947 13.0271 17.2545C13.551 16.7151 14.2602 16.412 15.0006 16.412Z" fill="white"/>
<path fill-rule="evenodd" clip-rule="evenodd" d="M12.7258 7.89387V12.2102C12.7258 13.8308 11.4504 15.1453 9.87862 15.1453C8.99233 15.1453 8.15513 14.724 7.60956 14.0043C7.06412 13.2837 6.87129 12.3453 7.08568 11.4582L7.67733 9.0188C7.9199 8.019 8.7906 7.31836 9.78928 7.31836H12.1677C12.4758 7.31836 12.7258 7.57618 12.7258 7.89387ZM11.6096 8.46938H9.78928C9.30252 8.46938 8.87844 8.81083 8.76085 9.29732L8.16919 11.7374C8.03751 12.2799 8.15574 12.8547 8.48924 13.2959C8.82339 13.7365 9.33617 13.9943 9.87858 13.9943C10.8341 13.9943 11.6095 13.1955 11.6095 12.2102L11.6096 8.46938Z" fill="white"/>
<path fill-rule="evenodd" clip-rule="evenodd" d="M17.8326 7.31836H20.211C21.2096 7.31836 22.0803 8.019 22.3229 9.0188L22.9146 11.4582C23.1289 12.3452 22.9361 13.2837 22.3907 14.0043C21.8453 14.7241 21.0081 15.1453 20.1216 15.1453C18.5499 15.1453 17.2744 13.8308 17.2744 12.2102V7.89387C17.2744 7.57618 17.5245 7.31836 17.8326 7.31836ZM18.3907 8.46938V12.2102C18.3907 13.1955 19.1661 13.9943 20.1216 13.9943C20.6642 13.9943 21.1769 13.7364 21.511 13.2959C21.8444 12.8547 21.9627 12.2799 21.831 11.7374L21.2394 9.29732C21.1218 8.81083 20.6976 8.46938 20.2109 8.46938H18.3907Z" fill="white"/>
<path fill-rule="evenodd" clip-rule="evenodd" d="M12.1617 7.31856L17.8326 7.31836C17.9807 7.31836 18.1226 7.3792 18.2275 7.48736C18.3324 7.59553 18.3905 7.7421 18.3905 7.89485L18.3868 12.0691C18.3853 13.7688 17.0487 15.1454 15.4011 15.1454H14.5899C12.9408 15.1454 11.6035 13.7672 11.6035 12.0668V7.89387C11.6035 7.57618 11.8536 7.31856 12.1617 7.31856ZM12.7198 8.46958V12.067C12.7198 13.1313 13.557 13.9946 14.59 13.9946H15.4011C16.4333 13.9946 17.2698 13.1328 17.2705 12.0685L17.2743 8.46981L12.7198 8.46958Z" fill="white"/>
</svg>
