<svg width="59" height="59" viewBox="0 0 59 59" fill="none" xmlns="http://www.w3.org/2000/svg">
<g clip-path="url(#clip0_204_2414)">
<path d="M58.3335 29.5879C58.3335 13.5716 45.3498 0.587891 29.3335 0.587891C13.3172 0.587891 0.333496 13.5716 0.333496 29.5879C0.333496 44.0624 10.9383 56.06 24.8022 58.2356V37.9707H17.439V29.5879H24.8022V23.1988C24.8022 15.9307 29.1319 11.916 35.756 11.916C38.9279 11.916 42.2476 12.4824 42.2476 12.4824V19.6191H38.5908C34.9885 19.6191 33.8647 21.8547 33.8647 24.1504V29.5879H41.9077L40.622 37.9707H33.8647V58.2356C47.7287 56.06 58.3335 44.0624 58.3335 29.5879Z" fill="#1877F2"/>
<path d="M40.6215 37.9727L41.9072 29.5898H33.8643V24.1523C33.8643 21.859 34.988 19.6211 38.5904 19.6211H42.2471V12.4844C42.2471 12.4844 38.9285 11.918 35.7555 11.918C29.1314 11.918 24.8018 15.9327 24.8018 23.2008V29.5898H17.4385V37.9727H24.8018V58.2375C27.8043 58.7073 30.8617 58.7073 33.8643 58.2375V37.9727H40.6215Z" fill="white"/>
</g>
<defs>
<clipPath id="clip0_204_2414">
<rect width="58" height="58" fill="white" transform="translate(0.333496 0.587891)"/>
</clipPath>
</defs>
</svg>
