<svg width="130" height="59" viewBox="0 0 130 59" fill="none" xmlns="http://www.w3.org/2000/svg">
<g clip-path="url(#clip0_190_2533)">
<path d="M58 29.2266C58 13.2103 45.0163 0.226562 29 0.226562C12.9837 0.226562 0 13.2103 0 29.2266C0 43.7011 10.6048 55.6987 24.4688 57.8743V37.6094H17.1055V29.2266H24.4688V22.8375C24.4688 15.5694 28.7984 11.5547 35.4225 11.5547C38.5944 11.5547 41.9141 12.1211 41.9141 12.1211V19.2578H38.2573C34.655 19.2578 33.5312 21.4934 33.5312 23.7891V29.2266H41.5742L40.2885 37.6094H33.5312V57.8743C47.3952 55.6987 58 43.7011 58 29.2266Z" fill="#1877F2"/>
<path d="M40.288 37.6113L41.5737 29.2285H33.5308V23.791C33.5308 21.4976 34.6545 19.2598 38.2569 19.2598H41.9136V12.123C41.9136 12.123 38.595 11.5566 35.422 11.5566C28.7979 11.5566 24.4683 15.5713 24.4683 22.8395V29.2285H17.105V37.6113H24.4683V57.8762C27.4708 58.346 30.5282 58.346 33.5308 57.8762V37.6113H40.288Z" fill="white"/>
</g>
<path d="M74 29.2266C74 13.2103 86.536 0.226562 102 0.226562C117.464 0.226562 130 13.2103 130 29.2266C130 45.2428 117.464 58.2266 102 58.2266C86.536 58.2266 74 45.2428 74 29.2266Z" fill="#55ACEE"/>
<path d="M101.161 23.7985L101.22 24.802L100.241 24.6791C96.6763 24.2081 93.5623 22.6107 90.9182 19.928L89.6256 18.5969L89.2926 19.5799C88.5876 21.7711 89.038 24.0852 90.5069 25.6416C91.2904 26.5017 91.1141 26.6246 89.7627 26.1126C89.2926 25.9488 88.8813 25.8259 88.8422 25.8874C88.7051 26.0307 89.1751 27.8943 89.5472 28.6315C90.0565 29.6555 91.0945 30.6589 92.2305 31.2528L93.1901 31.7238L92.0542 31.7443C90.9574 31.7443 90.9182 31.7648 91.0357 32.1949C91.4274 33.526 92.9747 34.939 94.6982 35.5534L95.9125 35.9835L94.8549 36.6388C93.2881 37.5808 91.447 38.1133 89.606 38.1542C88.7247 38.1747 88 38.2566 88 38.318C88 38.5228 90.3894 39.6697 91.78 40.1202C95.9517 41.4513 100.907 40.8779 104.628 38.6048C107.272 36.9869 109.916 33.7717 111.15 30.6589C111.816 29.0002 112.482 25.9693 112.482 24.5153C112.482 23.5732 112.541 23.4504 113.637 22.324C114.284 21.6687 114.891 20.952 115.008 20.7472C115.204 20.3581 115.185 20.3581 114.186 20.7062C112.521 21.3206 112.286 21.2387 113.109 20.3171C113.716 19.6618 114.44 18.474 114.44 18.1259C114.44 18.0644 114.147 18.1668 113.814 18.3511C113.461 18.5559 112.678 18.8631 112.09 19.0474L111.032 19.3956L110.073 18.7198C109.544 18.3511 108.8 17.9416 108.408 17.8187C107.409 17.532 105.881 17.5729 104.981 17.9006C102.532 18.8221 100.985 21.1977 101.161 23.7985Z" fill="white"/>
<defs>
<clipPath id="clip0_190_2533">
<rect width="58" height="58" fill="white" transform="translate(0 0.226562)"/>
</clipPath>
</defs>
</svg>
