<svg width="58" height="58" viewBox="0 0 58 58" fill="none" xmlns="http://www.w3.org/2000/svg">
<circle cx="29" cy="29" r="29" fill="#0A66C2"/>
<path d="M21.086 18.0445C21.0856 18.8516 20.7647 19.6254 20.1937 20.1958C19.6227 20.7662 18.8486 21.0864 18.0415 21.086C17.2344 21.0856 16.4606 20.7647 15.8902 20.1937C15.3198 19.6227 14.9996 18.8486 15 18.0415C15.0004 17.2344 15.3214 16.4606 15.8924 15.8902C16.4633 15.3198 17.2375 14.9996 18.0445 15C18.8516 15.0004 19.6254 15.3214 20.1958 15.8924C20.7662 16.4633 21.0864 17.2375 21.086 18.0445ZM21.1773 23.3394H15.0913V42.3887H21.1773V23.3394ZM30.7933 23.3394H24.7377V42.3887H30.7324V32.3924C30.7324 26.8237 37.99 26.3063 37.99 32.3924V42.3887H44V30.3231C44 20.9354 33.2581 21.2854 30.7324 25.8955L30.7933 23.3394Z" fill="white"/>
</svg>
