<svg width="58" height="59" viewBox="0 0 58 59" fill="none" xmlns="http://www.w3.org/2000/svg">
<g clip-path="url(#clip0_190_2550)">
<path d="M0 29.227C0 41.1021 7.1408 51.3037 17.359 55.789C17.2774 53.764 17.3445 51.3329 17.8638 49.1296C18.4213 46.7754 21.5953 33.3273 21.5953 33.3273C21.5953 33.3273 20.6688 31.4756 20.6688 28.739C20.6688 24.4413 23.1597 21.2316 26.2618 21.2316C28.8996 21.2316 30.174 23.2129 30.174 25.5855C30.174 28.2372 28.4828 32.2036 27.613 35.8773C26.8864 38.9536 29.1554 41.4627 32.1902 41.4627C37.6848 41.4627 41.3855 34.4056 41.3855 26.044C41.3855 19.6881 37.1046 14.9307 29.3183 14.9307C20.5214 14.9307 15.041 21.491 15.041 28.819C15.041 31.3456 15.786 33.1273 16.9528 34.5071C17.4893 35.1408 17.5638 35.3956 17.3696 36.1234C17.2305 36.6569 16.9111 37.9415 16.7788 38.4506C16.5857 39.1851 15.9906 39.4477 15.3267 39.1765C11.2749 37.5224 9.38784 33.0851 9.38784 28.0971C9.38784 19.8591 16.3356 9.98098 30.1142 9.98098C41.1863 9.98098 48.4737 17.9931 48.4737 26.5937C48.4737 37.9701 42.149 46.4691 32.826 46.4691C29.6951 46.4691 26.75 44.7767 25.7411 42.8543C25.7411 42.8543 24.0575 49.5361 23.7009 50.8264C23.086 53.0623 21.8825 55.2971 20.7821 57.0389C23.4505 57.8279 26.2186 58.2284 29.0011 58.2281C45.0155 58.2281 58.0002 45.2441 58.0002 29.227C58.0002 13.2106 45.0155 0.226562 29.0011 0.226562C12.9852 0.226562 0 13.2106 0 29.227Z" fill="#CB1F27"/>
</g>
<defs>
<clipPath id="clip0_190_2550">
<rect width="58" height="58" fill="white" transform="translate(0 0.226562)"/>
</clipPath>
</defs>
</svg>
