<svg width="56" height="59" viewBox="0 0 56 59" fill="none" xmlns="http://www.w3.org/2000/svg">
<path d="M0 29.5879C0 13.5716 12.536 0.587891 28 0.587891C43.464 0.587891 56 13.5716 56 29.5879C56 45.6041 43.464 58.5879 28 58.5879C12.536 58.5879 0 45.6041 0 29.5879Z" fill="#55ACEE"/>
<path d="M27.1614 24.1598L27.2202 25.1633L26.2409 25.0404C22.6763 24.5694 19.5623 22.9721 16.9182 20.2893L15.6256 18.9582L15.2926 19.9412C14.5876 22.1324 15.038 24.4465 16.5069 26.0029C17.2904 26.8631 17.1141 26.9859 15.7627 26.474C15.2926 26.3101 14.8813 26.1873 14.8422 26.2487C14.7051 26.392 15.1751 28.2556 15.5472 28.9929C16.0565 30.0168 17.0945 31.0203 18.2305 31.6142L19.1901 32.0852L18.0542 32.1057C16.9574 32.1057 16.9182 32.1261 17.0357 32.5562C17.4274 33.8873 18.9747 35.3004 20.6982 35.9147L21.9125 36.3448L20.8549 37.0001C19.2881 37.9421 17.447 38.4746 15.606 38.5155C14.7247 38.536 14 38.6179 14 38.6794C14 38.8842 16.3894 40.031 17.78 40.4815C21.9517 41.8126 26.9068 41.2392 30.628 38.9661C33.2721 37.3482 35.9161 34.1331 37.15 31.0203C37.8159 29.3615 38.4818 26.3306 38.4818 24.8766C38.4818 23.9346 38.5405 23.8117 39.6373 22.6854C40.2836 22.03 40.8908 21.3133 41.0083 21.1085C41.2042 20.7194 41.1846 20.7194 40.1857 21.0675C38.5209 21.6819 38.2859 21.6 39.1085 20.6784C39.7157 20.0231 40.4403 18.8353 40.4403 18.4872C40.4403 18.4258 40.1465 18.5282 39.8136 18.7125C39.4611 18.9172 38.6776 19.2244 38.0901 19.4087L37.0325 19.7569L36.0728 19.0811C35.544 18.7125 34.7997 18.3029 34.408 18.18C33.4092 17.8933 31.8815 17.9343 30.9806 18.2619C28.5324 19.1835 26.9851 21.559 27.1614 24.1598Z" fill="white"/>
</svg>
