<svg width="65" height="59" viewBox="0 0 65 59" fill="none" xmlns="http://www.w3.org/2000/svg">
<path d="M7.83252 29.5879C7.83252 13.5716 20.5552 0.587891 36.2495 0.587891C51.9438 0.587891 64.6665 13.5716 64.6665 29.5879C64.6665 45.6041 51.9438 58.5879 36.2495 58.5879C20.5552 58.5879 7.83252 45.6041 7.83252 29.5879Z" fill="#FF0000"/>
<path d="M50.7723 22.4269C50.4237 21.0603 49.3965 19.9841 48.0923 19.6189C45.7287 18.9551 36.25 18.9551 36.25 18.9551C36.25 18.9551 26.7713 18.9551 24.4075 19.6189C23.1032 19.9841 22.0761 21.0603 21.7275 22.4269C21.0942 24.9037 21.0942 30.0717 21.0942 30.0717C21.0942 30.0717 21.0942 35.2396 21.7275 37.7166C22.0761 39.0832 23.1032 40.1594 24.4075 40.5248C26.7713 41.1884 36.25 41.1884 36.25 41.1884C36.25 41.1884 45.7287 41.1884 48.0923 40.5248C49.3965 40.1594 50.4237 39.0832 50.7723 37.7166C51.4057 35.2396 51.4057 30.0717 51.4057 30.0717C51.4057 30.0717 51.4057 24.9037 50.7723 22.4269Z" fill="white"/>
<path d="M33.4077 35.3874V25.7207L40.9856 30.5542L33.4077 35.3874Z" fill="#FF0000"/>
</svg>
